<svg id="Camada_1" data-name="Camada 1" xmlns="http://www.w3.org/2000/svg" viewBox="0 0 77.94 77.94"><defs><style>.cls-1{fill:#336182;}</style></defs><path class="cls-1" d="M25.51,44.14a.46.46,0,0,1,0,.09,3.56,3.56,0,0,0,.67,2.25c.05.06,0,.17.05.26a9.93,9.93,0,0,0,.4,1.2.55.55,0,0,1,0,.53,8,8,0,0,0-.51,1.34,2,2,0,0,0,1.67,2.5c.79.1,1.59.16,2.37.33,1.19.26,2.37.6,3.55.92a1.07,1.07,0,0,1,.78.81c.18.7.38,1.39.55,2.08a.8.8,0,0,0,.89.7.75.75,0,0,0,.6-.94c-.13-.64-.3-1.27-.46-1.9A3.12,3.12,0,0,0,33.9,52a27.3,27.3,0,0,0-5.71-1.16c-.52-.06-.71-.26-.54-.75s.44-.94.65-1.41c.11-.26.29-.31.56-.31h9.45c.85,0,1.15.31,1.16,1.17v6.55a2.54,2.54,0,0,0,0,.39.76.76,0,0,0,.77.7.77.77,0,0,0,.73-.69,2,2,0,0,0,0-.35c0-2.2,0-4.4,0-6.59a2.48,2.48,0,0,0-2.71-2.7H27.92c.28-.6.21-1-.2-1.17a.82.82,0,0,1-.59-.75,7,7,0,0,1-.05-1.29c.05-.82-.22-1.07-1-1.08a8.69,8.69,0,0,1-1.89-.26.67.67,0,0,1-.48-.77.81.81,0,0,1,.49-.83C26.1,39.85,28,39,29.9,38.11A3.84,3.84,0,0,1,32,37.6a.76.76,0,0,0,.82-.6.47.47,0,0,1,.23-.27c1.51-.69,3-1.4,4.54-2a5.58,5.58,0,0,1,4.61.07,5.81,5.81,0,0,1,3.65,5.56c0,5.31,0,10.62,0,15.93,0,.55.31.91.77.9a.77.77,0,0,0,.74-.88c0-5.41,0-10.83,0-16.24a7.49,7.49,0,0,0-10.42-6.7c-3.37,1.45-6.7,3-10,4.5l-1.52.68a1.55,1.55,0,0,1,.29-.49,9.07,9.07,0,0,0,1.6-2.82c.28-.85.46-1.73.69-2.6a12.72,12.72,0,0,1,3.34-5.69,13.92,13.92,0,0,1,9-4.55,12.24,12.24,0,0,1,11.9,5.82,11.87,11.87,0,0,1,.77,12.44c-.59,1.17-1.4,2.24-2.08,3.37a8.27,8.27,0,0,0-1.28,5.31,10.39,10.39,0,0,0,.84,3,18.33,18.33,0,0,0,3,4.55.74.74,0,0,0,1.08.12.76.76,0,0,0,.07-1.09c-.13-.17-.27-.32-.4-.48a17.09,17.09,0,0,1-2.38-3.63,7,7,0,0,1,.41-7.13c.39-.6.8-1.2,1.2-1.8a13.31,13.31,0,0,0,2.34-6.69,14.07,14.07,0,0,0-3.71-10.62A13.7,13.7,0,0,0,39.36,21a16.13,16.13,0,0,0-10.91,7A12.67,12.67,0,0,0,26.23,33a9.21,9.21,0,0,1-2,4.28,9.38,9.38,0,0,0-1.92,3.34A2.37,2.37,0,0,0,24,43.83C24.45,44,25,44,25.51,44.14ZM42.18,23.69c-.2,0-.41,0-.62,0a.76.76,0,0,0-.71.71.74.74,0,0,0,.66.79l.35,0A9.67,9.67,0,0,1,49,28.81a17.55,17.55,0,0,1,1.24,1.85.77.77,0,0,0,.81.42.66.66,0,0,0,.6-.59,1.22,1.22,0,0,0-.15-.67A11.37,11.37,0,0,0,42.18,23.69Zm2,22.66v-1a.79.79,0,0,0-.53-.79.57.57,0,0,1-.26-.2c-.31-.45-.7-.59-1.08-.37a.77.77,0,0,0-.24,1.12,5,5,0,0,1,.6,2.28.74.74,0,0,0,.75.78.76.76,0,0,0,.76-.79C44.17,47,44.16,46.69,44.16,46.35Zm0,4.81V49.94a.77.77,0,0,0-.77-.81.74.74,0,0,0-.74.8q0,1.22,0,2.43a.76.76,0,0,0,.74.8.79.79,0,0,0,.77-.82ZM38.41,41.09a.76.76,0,0,0-.22,1.5c.65.18,1.3.37,1.94.59a.78.78,0,0,0,1-.34.74.74,0,0,0-.33-1A6.24,6.24,0,0,0,38.41,41.09Zm-4.31,0H32.93a.76.76,0,0,0-.77.73.73.73,0,0,0,.76.77c.75,0,1.51,0,2.27,0a.77.77,0,0,0,.79-.75.75.75,0,0,0-.78-.75Zm1.85-5H34.89a.77.77,0,0,0-.77.74.74.74,0,0,0,.75.78c.71,0,1.42,0,2.12,0a.74.74,0,0,0,.77-.77.76.76,0,0,0-.79-.75Zm8.21,5.64h.05c-.07-.52-.12-1.06-.22-1.58a.74.74,0,0,0-.85-.59.75.75,0,0,0-.63.85c.05.67.09,1.35.14,2a.75.75,0,0,0,1.5,0C44.17,42.19,44.16,42,44.16,41.72ZM40,36.22a.76.76,0,0,0-.82.58.75.75,0,0,0,.44.86l1.8.91a.78.78,0,0,0,1-.18.68.68,0,0,0,0-.93A4.61,4.61,0,0,0,40,36.22ZM29.24,42.58h0c.23,0,.45,0,.67,0a.75.75,0,0,0,.67-.79.73.73,0,0,0-.71-.7c-.4,0-.81,0-1.21,0a.74.74,0,0,0-.73.72.75.75,0,0,0,.73.77A5.61,5.61,0,0,0,29.24,42.58ZM44.15,55.8h0c0-.21,0-.42,0-.62a.76.76,0,0,0-.79-.67.73.73,0,0,0-.7.71c0,.4,0,.81,0,1.21a.73.73,0,0,0,.72.73.76.76,0,0,0,.77-.73C44.17,56.22,44.15,56,44.15,55.8Z"/><path class="cls-1" d="M25.51,44.14C25,44,24.45,44,24,43.83a2.37,2.37,0,0,1-1.67-3.17,9.38,9.38,0,0,1,1.92-3.34,9.21,9.21,0,0,0,2-4.28,12.67,12.67,0,0,1,2.22-5.13A16.13,16.13,0,0,1,39.36,21a13.7,13.7,0,0,1,12.69,4.58,14.07,14.07,0,0,1,3.71,10.62,13.31,13.31,0,0,1-2.34,6.69c-.4.6-.81,1.2-1.2,1.8a7,7,0,0,0-.41,7.13,17.09,17.09,0,0,0,2.38,3.63c.13.16.27.31.4.48A.76.76,0,0,1,54.52,57a.74.74,0,0,1-1.08-.12,18.33,18.33,0,0,1-3-4.55,10.39,10.39,0,0,1-.84-3A8.27,8.27,0,0,1,50.85,44c.68-1.13,1.49-2.2,2.08-3.37a11.87,11.87,0,0,0-.77-12.44,12.24,12.24,0,0,0-11.9-5.82,13.92,13.92,0,0,0-9,4.55,12.72,12.72,0,0,0-3.34,5.69c-.23.87-.41,1.75-.69,2.6A9.07,9.07,0,0,1,25.59,38a1.55,1.55,0,0,0-.29.49l1.52-.68c3.35-1.5,6.68-3.05,10-4.5A7.49,7.49,0,0,1,47.29,40c.08,5.41,0,10.83,0,16.24a.77.77,0,0,1-.74.88c-.46,0-.77-.35-.77-.9,0-5.31,0-10.62,0-15.93a5.81,5.81,0,0,0-3.65-5.56,5.58,5.58,0,0,0-4.61-.07c-1.53.63-3,1.34-4.54,2a.47.47,0,0,0-.23.27.76.76,0,0,1-.82.6,3.84,3.84,0,0,0-2.05.51c-1.9.87-3.8,1.74-5.72,2.57a.81.81,0,0,0-.49.83.67.67,0,0,0,.48.77,8.69,8.69,0,0,0,1.89.26c.8,0,1.07.26,1,1.08a7,7,0,0,0,.05,1.29.82.82,0,0,0,.59.75c.41.13.48.57.2,1.17H38.28A2.48,2.48,0,0,1,41,49.53c0,2.19,0,4.39,0,6.59a2,2,0,0,1,0,.35.77.77,0,0,1-.73.69.76.76,0,0,1-.77-.7,2.54,2.54,0,0,1,0-.39V49.52c0-.86-.31-1.17-1.16-1.17H28.86c-.27,0-.45,0-.56.31-.21.47-.48.92-.65,1.41s0,.69.54.75A27.3,27.3,0,0,1,33.9,52a3.12,3.12,0,0,1,2.2,2.33c.16.63.33,1.26.46,1.9a.75.75,0,0,1-.6.94.8.8,0,0,1-.89-.7c-.17-.69-.37-1.38-.55-2.08a1.07,1.07,0,0,0-.78-.81c-1.18-.32-2.36-.66-3.55-.92-.78-.17-1.58-.23-2.37-.33a2,2,0,0,1-1.67-2.5,8,8,0,0,1,.51-1.34.55.55,0,0,0,0-.53,9.93,9.93,0,0,1-.4-1.2c0-.09,0-.2-.05-.26a3.56,3.56,0,0,1-.67-2.25A.46.46,0,0,0,25.51,44.14Z"/><path class="cls-1" d="M42.18,23.69a11.37,11.37,0,0,1,9.35,6.13,1.22,1.22,0,0,1,.15.67.66.66,0,0,1-.6.59.77.77,0,0,1-.81-.42A17.55,17.55,0,0,0,49,28.81a9.67,9.67,0,0,0-7.17-3.59l-.35,0a.74.74,0,0,1-.66-.79.76.76,0,0,1,.71-.71C41.77,23.67,42,23.69,42.18,23.69Z"/><path class="cls-1" d="M44.16,46.35c0,.34,0,.68,0,1a.76.76,0,0,1-.76.79.74.74,0,0,1-.75-.78,5,5,0,0,0-.6-2.28A.77.77,0,0,1,42.29,44c.38-.22.77-.08,1.08.37a.57.57,0,0,0,.26.2.79.79,0,0,1,.53.79Z"/><path class="cls-1" d="M44.16,51.16v1.18a.79.79,0,0,1-.77.82.76.76,0,0,1-.74-.8q0-1.22,0-2.43a.74.74,0,0,1,.74-.8.77.77,0,0,1,.77.81v1.22Z"/><path class="cls-1" d="M38.41,41.09a6.24,6.24,0,0,1,2.42.74.74.74,0,0,1,.33,1,.78.78,0,0,1-1,.34c-.64-.22-1.29-.41-1.94-.59a.76.76,0,0,1,.22-1.5Z"/><path class="cls-1" d="M34.1,41.07h1.1a.75.75,0,0,1,.78.75.77.77,0,0,1-.79.75c-.76,0-1.52,0-2.27,0a.73.73,0,0,1-.76-.77.76.76,0,0,1,.77-.73H34.1Z"/><path class="cls-1" d="M36,36.08h1a.76.76,0,0,1,.79.75.74.74,0,0,1-.77.77c-.7,0-1.41,0-2.12,0a.74.74,0,0,1-.75-.78.77.77,0,0,1,.77-.74H36Z"/><path class="cls-1" d="M44.16,41.72c0,.24,0,.47,0,.71a.75.75,0,0,1-1.5,0c0-.67-.09-1.35-.14-2a.75.75,0,0,1,.63-.85.74.74,0,0,1,.85.59c.1.52.15,1.06.22,1.58Z"/><path class="cls-1" d="M40,36.22a4.61,4.61,0,0,1,2.39,1.24.68.68,0,0,1,0,.93.78.78,0,0,1-1,.18l-1.8-.91a.75.75,0,0,1-.44-.86A.76.76,0,0,1,40,36.22Z"/><path class="cls-1" d="M29.24,42.58a5.61,5.61,0,0,1-.58,0,.75.75,0,0,1-.73-.77.74.74,0,0,1,.73-.72c.4,0,.81,0,1.21,0a.73.73,0,0,1,.71.7.75.75,0,0,1-.67.79c-.22,0-.44,0-.67,0Z"/><path class="cls-1" d="M44.15,55.8c0,.21,0,.42,0,.63a.76.76,0,0,1-.77.73.73.73,0,0,1-.72-.73c0-.4,0-.81,0-1.21a.73.73,0,0,1,.7-.71.76.76,0,0,1,.79.67c0,.2,0,.41,0,.62Z"/><path class="cls-1" d="M39,74.81A35.84,35.84,0,1,1,74.81,39,35.87,35.87,0,0,1,39,74.81ZM39,5.14A33.84,33.84,0,1,0,72.81,39,33.87,33.87,0,0,0,39,5.14Z"/></svg>