<svg id="Camada_1" data-name="Camada 1" xmlns="http://www.w3.org/2000/svg" viewBox="0 0 77.94 77.94"><defs><style>.cls-1{fill:#336182;}</style></defs><path class="cls-1" d="M39,74.81A35.84,35.84,0,1,1,74.81,39,35.87,35.87,0,0,1,39,74.81ZM39,5.14A33.84,33.84,0,1,0,72.81,39,33.87,33.87,0,0,0,39,5.14Z"/><path class="cls-1" d="M35.24,58.44H28c-1,0-1.3-.41-1-1.4.69-2.61,1.38-5.22,2-7.85a5.35,5.35,0,0,0-.61-4c-.58-1-1.22-2-1.86-3a21.91,21.91,0,0,1-3.08-6.89c-1.2-5.06.42-9.13,4.38-12.35A15.46,15.46,0,0,1,39.51,19.6a15.28,15.28,0,0,1,5.69,1.56,11.56,11.56,0,0,1,5.49,6.77,19.63,19.63,0,0,1,1,6,1.82,1.82,0,0,0,.28.87c.81,1.3,1.66,2.58,2.49,3.86a2.21,2.21,0,0,1-1.2,3.54l-.41.13a.4.4,0,0,0-.3.57,2,2,0,0,1-.23,1.86.74.74,0,0,0-.06.37,2.42,2.42,0,0,1-.49,1.49,1.55,1.55,0,0,0-.21.7c0,.62,0,1.25-.09,1.85a3.6,3.6,0,0,1-3.76,3.2c-.77,0-1.54,0-2.3,0-1,0-1.53.35-1.68,1.38a25.2,25.2,0,0,0-.14,2.89c0,.23,0,.46.06.69,0,.75-.26,1.07-1,1.07-1.94,0-3.88,0-5.82,0Zm6.65-1.72a4.18,4.18,0,0,1,0-.49,25.78,25.78,0,0,1,.26-3,2.87,2.87,0,0,1,2.4-2.38,10.67,10.67,0,0,1,1.6-.11c.59,0,1.18,0,1.78,0A1.84,1.84,0,0,0,49.8,49a7.87,7.87,0,0,0,0-1.94,1.12,1.12,0,0,1,.45-1.24.72.72,0,0,0,.28-.87,1,1,0,0,1,.17-.78.88.88,0,0,0,.2-.89,2,2,0,0,1,1.43-2.47l.37-.13c.63-.24.71-.46.33-1-.89-1.38-1.78-2.77-2.69-4.14A2,2,0,0,1,50,34.29a16.76,16.76,0,0,0-1.18-6.53,9.34,9.34,0,0,0-5.44-5.56,15.89,15.89,0,0,0-4.78-1,13.71,13.71,0,0,0-10.49,3.68,9.65,9.65,0,0,0-3.17,9.55,19.86,19.86,0,0,0,3,6.83c.62,1,1.24,1.88,1.81,2.86a7.39,7.39,0,0,1,.87,5.51c-.4,1.76-.85,3.51-1.29,5.26-.15.6-.32,1.19-.49,1.8Z"/><path class="cls-1" d="M40.65,49.22a.91.91,0,0,1-.84-.63,3.65,3.65,0,0,0-2.9-2.09,3.7,3.7,0,0,0-3.77,1.91c-.06.11-.11.24-.18.35a.83.83,0,0,1-1.11.37A.82.82,0,0,1,31.44,48a5.3,5.3,0,0,1,3.35-3,5.46,5.46,0,0,1,6.6,2.91A.86.86,0,0,1,40.65,49.22Z"/><path class="cls-1" d="M36.44,55.68a5.44,5.44,0,0,1-4.94-3.13A.86.86,0,1,1,33,51.8a3.76,3.76,0,0,0,6.79,0c.29-.55.74-.74,1.2-.51a.85.85,0,0,1,.33,1.25A5.43,5.43,0,0,1,36.44,55.68Z"/><path class="cls-1" d="M36.38,52.78A2.57,2.57,0,1,1,39,50.22,2.56,2.56,0,0,1,36.38,52.78Zm-.81-2.58a.85.85,0,0,0,.84.87.86.86,0,1,0,0-1.72A.85.85,0,0,0,35.57,50.2Z"/></svg>